# xmcd
#
# Track frame offsets:
#   150
#   22624
#   44226
#   69269
#   85658
#   101899
#   118460
#   137707
#   155191
#   171470
#
# Disc length: 2587 seconds
#
# Revision: 0
# Processed by: cddbd v1.4PL0 Copyright (c) Steve Scherf et al.
# Submitted via: uFREEDB 1.6.0
#
DISCID=8e0a190a
DTITLE=Los Guaritotos - Los guaritotos
DYEAR=1999
DGENRE=Books and Spoken
TTITLE0=Guaritoto 1
TTITLE1=Guaritoto 2
TTITLE2=Guaritoto 3
TTITLE3=Guaritoto 4
TTITLE4=Guaritoto 5
TTITLE5=Guaritoto 6
TTITLE6=Guaritoto 7
TTITLE7=Guaritoto 8
TTITLE8=Guaritoto 9
TTITLE9=Guaritoto 10
EXTD=
EXTT0=
EXTT1=
EXTT2=
EXTT3=
EXTT4=
EXTT5=
EXTT6=
EXTT7=
EXTT8=
EXTT9=
PLAYORDER=
